<svg width="15" height="14" viewBox="0 0 15 14" fill="none" xmlns="http://www.w3.org/2000/svg">
<path d="M8.46743 6.51647C8.35722 6.51647 8.24701 6.4745 8.16306 6.39033C7.49168 5.71895 6.39926 5.71874 5.72766 6.39033C5.55976 6.55845 5.28681 6.55845 5.11891 6.39033C4.9508 6.22222 4.9508 5.9497 5.11891 5.78159C6.1261 4.77419 7.76484 4.77441 8.7718 5.78159C8.93992 5.9497 8.93992 6.22222 8.7718 6.39033C8.68786 6.4745 8.57743 6.51647 8.46743 6.51647Z" fill="black"/>
<path d="M8.16406 8.97145C7.50258 8.97145 6.8411 8.71961 6.33762 8.21612C6.1695 8.04801 6.1695 7.77549 6.33762 7.60738C6.50552 7.43926 6.77846 7.43926 6.94636 7.60738C7.61774 8.27876 8.71017 8.27898 9.38177 7.60738C9.54966 7.43926 9.82261 7.43926 9.99051 7.60738C10.1586 7.77549 10.1586 8.04801 9.99051 8.21612C9.48681 8.71961 8.82533 8.97145 8.16406 8.97145Z" fill="black"/>
<path d="M9.68588 8.3453C9.57567 8.3453 9.46546 8.30333 9.38151 8.21917C9.2134 8.05105 9.2134 7.77854 9.38151 7.61042L11.7863 5.20558C11.9542 5.03747 12.2272 5.03747 12.3951 5.20558C12.5632 5.3737 12.5632 5.64621 12.3951 5.81433L9.99025 8.21917C9.9063 8.30333 9.79609 8.3453 9.68588 8.3453Z" fill="black"/>
<path d="M6.06307 11.9671C5.95286 11.9671 5.84265 11.9251 5.7587 11.8409C5.59059 11.6728 5.59059 11.4003 5.7587 11.2322L7.10297 9.8879C7.27087 9.71978 7.54382 9.71978 7.71172 9.8879C7.87983 10.056 7.87983 10.3285 7.71172 10.4966L6.36744 11.8409C6.28349 11.9251 6.17328 11.9671 6.06307 11.9671Z" fill="black"/>
<path d="M3.01893 8.92193C2.90872 8.92193 2.79851 8.87996 2.71456 8.79579C2.54644 8.62768 2.54644 8.35516 2.71456 8.18705L5.11939 5.78243C5.28751 5.61431 5.56024 5.61431 5.72814 5.78243C5.89625 5.95054 5.89625 6.22306 5.72814 6.39117L3.3233 8.79579C3.23913 8.87974 3.12892 8.92193 3.01893 8.92193Z" fill="black"/>
<path d="M7.70167 4.23753C7.59146 4.23753 7.48146 4.19556 7.3973 4.11161C7.22918 3.94349 7.22918 3.67098 7.3973 3.50265L8.74157 2.15816C8.90968 1.99005 9.1822 1.99005 9.35053 2.15816C9.51864 2.32627 9.51864 2.59879 9.35053 2.76712L8.00625 4.11161C7.92209 4.19534 7.81166 4.23753 7.70167 4.23753Z" fill="black"/>
<path d="M4.54086 12.5846C3.87508 12.5846 3.20929 12.337 2.71442 11.8419C1.72424 10.8518 1.72424 9.17901 2.71442 8.18883C2.88232 8.02072 3.15526 8.02072 3.32316 8.18883C3.49128 8.35694 3.49128 8.62946 3.32316 8.79757C2.66319 9.45755 2.66319 10.573 3.32316 11.233C3.98314 11.8929 5.09859 11.8929 5.75857 11.233C5.92646 11.0649 6.19941 11.0649 6.36731 11.233C6.53542 11.4011 6.53542 11.6736 6.36731 11.8417C5.87244 12.337 5.20665 12.5846 4.54086 12.5846Z" fill="black"/>
<path d="M12.0902 5.93929C11.98 5.93929 11.8698 5.89732 11.7858 5.81316C11.6177 5.64504 11.6177 5.37253 11.7858 5.20441C12.4458 4.54444 12.4458 3.42898 11.7858 2.76901C11.1259 2.10903 10.0104 2.10903 9.35042 2.76901C9.18252 2.93712 8.90958 2.93712 8.74168 2.76901C8.57356 2.60089 8.57356 2.32838 8.74168 2.16027C9.73186 1.17009 11.4046 1.17009 12.3948 2.16027C13.385 3.15044 13.385 4.82319 12.3948 5.81337C12.3106 5.89732 12.2004 5.93929 12.0902 5.93929Z" fill="black"/>
</svg>
