<svg width="16" height="17" viewBox="0 0 16 17" fill="current" xmlns="http://www.w3.org/2000/svg">
<path d="M1 6.43595C1 4.24845 2.7775 2.47095 4.965 2.47095C7.15 2.47095 8.93 4.24845 8.93 6.43595V6.56095H7.925C7.9125 6.91345 7.835 7.25095 7.7075 7.56095H9.43C9.705 7.56095 9.93 7.33845 9.93 7.06095V6.43595C9.93 3.69845 7.7025 1.47095 4.965 1.47095C2.2275 1.47095 0 3.69845 0 6.43595C0 6.71095 0.225 6.93595 0.5 6.93595C0.775 6.93595 1 6.71095 1 6.43595Z" fill="current"/>
<path d="M5.2925 7.06092C5.2925 6.78592 5.5175 6.56092 5.7925 6.56092H7.925C7.93 6.51842 7.93 6.47842 7.93 6.43592C7.93 4.80092 6.6 3.47092 4.965 3.47092C3.33 3.47092 2 4.80092 2 6.43592C2 8.07092 3.33 9.40092 4.965 9.40092C6.2025 9.40092 7.265 8.64092 7.7075 7.56092H5.7925C5.5175 7.56092 5.2925 7.33842 5.2925 7.06092Z" fill="current"/>
<path d="M5.42594 14.459L5.43844 14.4215L6.38844 11.4915L6.69844 10.534C6.13094 10.3015 5.51844 10.179 4.88844 10.179C3.62094 10.179 2.43094 10.674 1.53844 11.569C0.640938 12.464 0.148438 13.654 0.148438 14.9215C0.148438 15.199 0.373437 15.4215 0.648438 15.4215H5.44094C5.33094 15.114 5.32344 14.7765 5.42594 14.459ZM4.18594 13.764H3.22094C2.94344 13.764 2.72094 13.5415 2.72094 13.264C2.72094 12.989 2.94344 12.764 3.22094 12.764H4.18594C4.46094 12.764 4.68594 12.989 4.68594 13.264C4.68594 13.5415 4.46094 13.764 4.18594 13.764Z" fill="current"/>
<path d="M15.9041 9.65794C15.8091 9.52794 15.6591 9.45044 15.4991 9.45044H8.46415C8.24665 9.45044 8.05415 9.59044 7.98915 9.79794L6.37415 14.7654C6.32415 14.9179 6.35165 15.0854 6.44665 15.2154C6.53915 15.3429 6.68915 15.4204 6.84915 15.4204H13.8866C14.1016 15.4204 14.2941 15.2804 14.3616 15.0754L15.9741 10.1054C16.0241 9.95294 15.9966 9.78544 15.9041 9.65794ZM11.1741 13.8629C10.3891 13.8629 9.74915 13.2229 9.74915 12.4354C9.74915 11.6504 10.3891 11.0079 11.1741 11.0079C11.9616 11.0079 12.6016 11.6504 12.6016 12.4354C12.6016 13.2229 11.9616 13.8629 11.1741 13.8629Z" fill="current"/>
</svg>
