<svg width="16" height="17" viewBox="0 0 16 17" fill="current" xmlns="http://www.w3.org/2000/svg">
<path d="M15.5686 7.40479C15.5683 7.40442 15.5679 7.40405 15.5675 7.40369L9.04079 0.877197C8.76259 0.598877 8.39272 0.445557 7.99928 0.445557C7.60585 0.445557 7.23598 0.598755 6.95766 0.877075L0.434343 7.40027C0.432145 7.40247 0.429948 7.40479 0.427751 7.40698C-0.143538 7.98157 -0.142562 8.91382 0.430558 9.48694C0.692399 9.7489 1.03822 9.90063 1.40798 9.9165C1.42299 9.91797 1.43813 9.9187 1.45339 9.9187H1.71352V14.7218C1.71352 15.6722 2.48683 16.4456 3.43752 16.4456H5.99098C6.24977 16.4456 6.45973 16.2357 6.45973 15.9768V12.2112C6.45973 11.7775 6.81252 11.4247 7.24623 11.4247H8.75233C9.18605 11.4247 9.53883 11.7775 9.53883 12.2112V15.9768C9.53883 16.2357 9.74867 16.4456 10.0076 16.4456H12.5611C13.5117 16.4456 14.285 15.6722 14.285 14.7218V9.9187H14.5263C14.9196 9.9187 15.2894 9.7655 15.5679 9.48718C16.1416 8.91309 16.1419 7.97925 15.5686 7.40479Z" fill="current"/>
</svg>
