<svg width="21" height="20" viewBox="0 0 21 20" fill="none" xmlns="http://www.w3.org/2000/svg">
<g clip-path="url(#clip0_15_196)">
<path d="M14.9314 5.16026C15.1643 5.16026 15.3531 4.97149 15.3531 4.73863V3.56964C15.3531 3.33679 15.1643 3.14801 14.9314 3.14801H12.5934C12.3606 3.14801 12.1718 3.33679 12.1718 3.56964C12.1718 3.8025 12.3606 3.99127 12.5934 3.99127H14.5098V4.73863C14.5098 4.97149 14.6986 5.16026 14.9314 5.16026Z" fill="black"/>
<path d="M5.57942 5.16026C5.81228 5.16026 6.00105 4.97149 6.00105 4.73863V3.99127H7.9174C8.15026 3.99127 8.33904 3.8025 8.33904 3.56964C8.33904 3.33679 8.15026 3.14801 7.9174 3.14801H5.57942C5.34657 3.14801 5.15779 3.33679 5.15779 3.56964V4.73863C5.15779 4.97149 5.34657 5.16026 5.57942 5.16026Z" fill="black"/>
<path d="M12.5934 16.8499H14.9314C15.1642 16.8499 15.353 16.6611 15.353 16.4282V15.2592C15.353 15.0264 15.1642 14.8376 14.9314 14.8376C14.6985 14.8376 14.5098 15.0264 14.5098 15.2592V16.0066H12.5934C12.3605 16.0066 12.1718 16.1954 12.1718 16.4282C12.1718 16.6611 12.3605 16.8499 12.5934 16.8499Z" fill="black"/>
<path d="M5.57948 16.8499H7.91747C8.15032 16.8499 8.3391 16.6611 8.3391 16.4282C8.3391 16.1954 8.15032 16.0066 7.91747 16.0066H6.00111V15.2592C6.00111 15.0264 5.81234 14.8376 5.57948 14.8376C5.34663 14.8376 5.15785 15.0264 5.15785 15.2592V16.4282C5.15785 16.6611 5.34663 16.8499 5.57948 16.8499Z" fill="black"/>
<path d="M17.2694 8.66699C18.1527 8.66699 18.899 7.93857 18.899 7.07637C18.899 6.21417 18.1527 5.48575 17.2694 5.48575C16.3923 5.48575 15.6787 6.1993 15.6787 7.07637C15.6787 7.95344 16.3923 8.66699 17.2694 8.66699ZM17.2694 6.32901C17.6956 6.32901 18.0557 6.67126 18.0557 7.07637C18.0557 7.48148 17.6956 7.82373 17.2694 7.82373C16.8573 7.82373 16.522 7.48846 16.522 7.07637C16.522 6.66428 16.8573 6.32901 17.2694 6.32901Z" fill="black"/>
<path d="M14.9314 12.1736H19.6463C19.8792 12.1736 20.0679 11.9848 20.0679 11.752C20.0679 11.0154 19.7728 10.3212 19.2367 9.79726C18.7057 9.27824 18.007 8.99237 17.2693 8.99237C15.7477 8.99237 14.5098 10.2303 14.5098 11.752C14.5098 11.9848 14.6985 12.1736 14.9314 12.1736ZM19.177 11.3304H15.3998C15.5923 10.4758 16.3575 9.83563 17.2693 9.83563C18.1998 9.83563 18.9805 10.4758 19.177 11.3304Z" fill="black"/>
<path d="M3.24149 8.66699C4.11856 8.66699 4.83211 7.95344 4.83211 7.07637C4.83211 6.1993 4.11856 5.48575 3.24149 5.48575C2.35817 5.48575 1.61188 6.21417 1.61188 7.07637C1.61188 7.93857 2.35817 8.66699 3.24149 8.66699ZM3.24149 6.32901C3.65357 6.32901 3.98885 6.66428 3.98885 7.07637C3.98885 7.48846 3.65357 7.82373 3.24149 7.82373C2.81526 7.82373 2.45514 7.48148 2.45514 7.07637C2.45514 6.67126 2.81526 6.32901 3.24149 6.32901Z" fill="black"/>
<path d="M0.864501 12.1736H5.57941C5.81226 12.1736 6.00104 11.9848 6.00104 11.752C6.00104 10.2303 4.76309 8.99237 3.24146 8.99237C2.50376 8.99237 1.80504 9.27824 1.27406 9.79726C0.73805 10.3212 0.44287 11.0154 0.44287 11.752C0.44287 11.9848 0.631645 12.1736 0.864501 12.1736ZM5.11105 11.3304H1.33381C1.53029 10.4758 2.311 9.83563 3.24146 9.83563C4.15334 9.83563 4.91848 10.4758 5.11105 11.3304Z" fill="black"/>
<path d="M10.2555 9.83598C11.4548 9.83598 12.4306 8.86021 12.4306 7.66087C12.4306 6.46152 11.4548 5.48575 10.2555 5.48575C9.05611 5.48575 8.08034 6.46152 8.08034 7.66087C8.08034 8.86021 9.05611 9.83598 10.2555 9.83598ZM10.2555 6.32901C10.9898 6.32901 11.5873 6.9265 11.5873 7.66087C11.5873 8.39523 10.9898 8.99272 10.2555 8.99272C9.52109 8.99272 8.9236 8.39523 8.9236 7.66087C8.9236 6.9265 9.52109 6.32901 10.2555 6.32901Z" fill="#575757"/>
<path d="M7.33299 14.5118H13.1779C13.4108 14.5118 13.5996 14.323 13.5996 14.0902V13.5057C13.5996 11.6618 12.0994 10.1616 10.2555 10.1616C8.41153 10.1616 6.91136 11.6618 6.91136 13.5057V14.0902C6.91136 14.323 7.10014 14.5118 7.33299 14.5118ZM12.7563 13.6686H7.75463V13.5057C7.75463 12.1267 8.87651 11.0049 10.2555 11.0049C11.6344 11.0049 12.7563 12.1267 12.7563 13.5057V13.6686Z" fill="#575757"/>
</g>
<defs>
<clipPath id="clip0_15_196">
<rect width="19.625" height="19.625" fill="white" transform="matrix(-1 0 0 1 20.0679 0.1875)"/>
</clipPath>
</defs>
</svg>
