<svg width="16" height="21" viewBox="0 0 16 21" fill="current" xmlns="http://www.w3.org/2000/svg">
<path fill-rule="evenodd" clip-rule="evenodd" d="M0 2.95984V18.0456C0 19.182 0.920686 20.1027 2.05714 20.1027H13.4857C14.1522 20.1027 14.7922 19.8376 15.264 19.3667C15.7349 18.8949 16 18.2549 16 17.5884C16 14.1909 16 7.1363 16 5.89196C16 5.58933 15.8793 5.29859 15.6654 5.08373C14.997 4.41539 12.0302 1.44853 11.3618 0.780185C11.147 0.566242 10.8562 0.445557 10.5536 0.445557H2.51429C1.84777 0.445557 1.20777 0.7107 0.736 1.18156C0.265143 1.65333 0 2.29333 0 2.95984ZM3.42857 17.3598H12.5714C12.9499 17.3598 13.2571 17.0526 13.2571 16.6741C13.2571 16.2956 12.9499 15.9884 12.5714 15.9884H3.42857C3.05006 15.9884 2.74286 16.2956 2.74286 16.6741C2.74286 17.0526 3.05006 17.3598 3.42857 17.3598ZM3.42857 14.617H8C8.37851 14.617 8.68571 14.3098 8.68571 13.9313C8.68571 13.5528 8.37851 13.2456 8 13.2456H3.42857C3.05006 13.2456 2.74286 13.5528 2.74286 13.9313C2.74286 14.3098 3.05006 14.617 3.42857 14.617ZM4.57143 10.2741V8.9027C4.57143 8.52419 4.26423 8.21699 3.88571 8.21699C3.5072 8.21699 3.2 8.52419 3.2 8.9027V10.2741C3.2 10.6526 3.5072 10.9598 3.88571 10.9598C4.26423 10.9598 4.57143 10.6526 4.57143 10.2741ZM10.0571 10.2741V7.98841C10.0571 7.6099 9.74994 7.3027 9.37143 7.3027C8.99291 7.3027 8.68571 7.6099 8.68571 7.98841V10.2741C8.68571 10.6526 8.99291 10.9598 9.37143 10.9598C9.74994 10.9598 10.0571 10.6526 10.0571 10.2741ZM7.31429 10.2741V6.61699C7.31429 6.23847 7.00709 5.93127 6.62857 5.93127C6.25006 5.93127 5.94286 6.23847 5.94286 6.61699V10.2741C5.94286 10.6526 6.25006 10.9598 6.62857 10.9598C7.00709 10.9598 7.31429 10.6526 7.31429 10.2741ZM10.2857 1.62956V5.24556C10.2857 5.75024 10.6953 6.15984 11.2 6.15984H14.816C14.7941 6.11047 14.7621 6.06476 14.7237 6.02636C14.0553 5.35801 11.0875 2.39024 10.4192 1.7219C10.3808 1.6835 10.3351 1.6515 10.2857 1.62956Z" fill="current"/>
</svg>
