<svg width="16" height="17" viewBox="0 0 16 17" fill="current" xmlns="http://www.w3.org/2000/svg">
<path d="M14.4001 2.04556H13.6001V1.24556C13.6001 0.765558 13.2801 0.445557 12.8 0.445557C12.32 0.445557 12 0.765558 12 1.24556V2.04556H4.00002V1.24556C4.00002 0.765558 3.68001 0.445557 3.20001 0.445557C2.72001 0.445557 2.40001 0.765558 2.40001 1.24556V2.04556H0.800003C0.400002 2.04556 0 2.36556 0 2.84557V14.0456C0 14.5256 0.400002 14.8456 0.800003 14.8456H5.68002C5.12002 13.8856 4.80002 12.7656 4.80002 11.6456C4.80002 8.12559 7.68003 5.24557 11.2 5.24557C12.72 5.24557 14.0801 5.80558 15.2001 6.68558V2.84557C15.2001 2.44556 14.8001 2.04556 14.4001 2.04556Z" fill="current"/>
<path d="M11.1999 6.84436C8.55991 6.84436 6.3999 9.00437 6.3999 11.6444C6.3999 14.2844 8.55991 16.4444 11.1999 16.4444C13.8399 16.4444 15.9999 14.2844 15.9999 11.6444C15.9999 9.00437 13.8399 6.84436 11.1999 6.84436ZM12.7999 12.4444H11.1999C10.7199 12.4444 10.3999 12.1244 10.3999 11.6444V9.24437C10.3999 8.76437 10.7199 8.44437 11.1999 8.44437C11.6799 8.44437 11.9999 8.76437 11.9999 9.24437V10.8444H12.7999C13.2799 10.8444 13.5999 11.1644 13.5999 11.6444C13.5999 12.1244 13.2799 12.4444 12.7999 12.4444Z" fill="current"/>
</svg>
