<svg width="28" height="28" viewBox="0 0 28 28" fill="current" xmlns="http://www.w3.org/2000/svg">
<path fill-rule="evenodd" clip-rule="evenodd" d="M17.9647 10.322C16.8966 7.74305 14.1556 6.27771 11.4179 6.82216C8.68014 7.36662 6.70828 9.76922 6.70825 12.5606C6.70824 14.112 7.32445 15.6 8.42139 16.6973C10.3949 18.6713 13.4881 18.9763 15.8092 17.4257C18.1303 15.8752 19.0327 12.9009 17.9647 10.322ZM11.0765 5.10579C14.6332 4.39848 18.1941 6.30209 19.5815 9.6524C20.969 13.0028 19.7966 16.8665 16.7813 18.8809C13.7659 20.8953 9.74759 20.499 7.18379 17.9345C5.75876 16.5092 4.95823 14.5761 4.95825 12.5606C4.95829 8.9343 7.51994 5.81309 11.0765 5.10579Z" fill="current"/>
<path fill-rule="evenodd" clip-rule="evenodd" d="M18.665 18.6669C19.0067 18.3252 19.5608 18.3252 19.9025 18.6669L22.7853 21.5497C23.127 21.8914 23.127 22.4455 22.7853 22.7872C22.4436 23.1289 21.8896 23.1289 21.5478 22.7872L18.665 19.9044C18.3233 19.5626 18.3233 19.0086 18.665 18.6669Z" fill="current"/>
</svg>
