<svg width="16" height="16" viewBox="0 0 16 16" fill="current" xmlns="http://www.w3.org/2000/svg">
<path d="M1.85892 12.9969H5.51037L5.17842 14.3247H3.71784C3.3195 14.3247 3.05394 14.5902 3.05394 14.9886C3.05394 15.3205 3.3195 15.6525 3.71784 15.6525H12.2158C12.6141 15.6525 12.8797 15.3205 12.8797 14.9886C12.8797 14.5902 12.6141 14.3247 12.2158 14.3247H10.8216L10.4896 12.9969H14.1411C15.1369 12.9969 16 12.1338 16 11.1379C16 7.95123 16 5.56118 16 2.30807C16 1.31222 15.1369 0.44915 14.1411 0.44915H1.85892C0.86307 0.38276 0 1.24583 0 2.24168V11.0716C0 12.1338 0.79668 12.9969 1.85892 12.9969ZM1.3278 2.24168C1.3278 1.97612 1.59336 1.71056 1.85892 1.71056H14.0747C14.3402 1.71056 14.6058 1.97612 14.6058 2.24168V9.01347H1.3278V2.24168Z" fill="current"/>
<path d="M11.9504 6.62201C11.6185 6.62201 11.4193 6.42284 11.2865 6.22367C11.1537 5.95811 11.2201 5.69255 11.4193 5.49338L11.4857 5.42699C11.7512 5.16143 11.7512 4.76309 11.4857 4.49753L11.0209 4.0328C10.7554 3.76724 10.357 3.76724 10.0915 4.0328L10.0251 4.09919C9.89232 4.36475 9.62676 4.36475 9.3612 4.29836C9.3612 4.29836 9.3612 4.29836 9.29481 4.29836C9.02925 4.23197 8.89646 3.96641 8.89646 3.70085V3.63446C8.89646 3.30251 8.63091 2.97056 8.23256 2.97056H7.63505C7.3031 2.97056 6.97115 3.23612 6.97115 3.63446V3.70085C6.97115 3.96641 6.83837 4.23197 6.57281 4.29836C6.57281 4.29836 6.57281 4.29836 6.50642 4.29836C6.30725 4.36475 6.04169 4.36475 5.84252 4.16558V4.09919C5.57696 3.83363 5.17862 3.83363 4.91306 4.09919L4.44833 4.56392C4.18277 4.82948 4.18277 5.22782 4.44833 5.49338L4.51472 5.55977C4.71389 5.69255 4.78028 5.95811 4.6475 6.22367C4.51472 6.48923 4.31555 6.62201 4.04999 6.62201H3.9836C3.65165 6.62201 3.3197 6.88757 3.3197 7.28591V7.68425H5.9753V7.61786C5.9753 6.48923 6.83837 5.62616 7.967 5.62616C9.09564 5.62616 9.95871 6.48923 9.95871 7.61786V7.68425H12.6143V7.28591C12.6143 6.95396 12.2824 6.62201 11.9504 6.62201Z" fill="current"/>
</svg>
