<svg width="20" height="21" viewBox="0 0 20 21" fill="current" xmlns="http://www.w3.org/2000/svg">
<path d="M17.5668 11.0406C16.6718 10.2606 15.5252 9.83121 14.3376 9.83121C14.0754 9.83121 13.8136 9.85281 13.5558 9.89401C13.2304 10.7408 12.6258 11.421 11.8652 11.8454C12.5536 12.0832 13.1962 12.451 13.7542 12.9374C14.4962 13.5848 15.0522 14.4044 15.38 15.3216C16.7508 15.1462 18.0456 14.6264 19.1582 13.8042C18.9512 12.7374 18.395 11.7622 17.5668 11.0406Z" fill="#current"/>
<path d="M5.66053 9.03131C5.84613 9.03131 6.03013 9.01231 6.21173 8.97871C6.19293 8.82691 6.18253 8.67151 6.18253 8.51531C6.18253 6.96271 7.10113 5.59871 8.50333 5.00491C8.08173 3.80791 6.95893 2.99731 5.66053 2.99731C3.99753 2.99731 2.64453 4.35131 2.64453 6.01531C2.64453 7.67831 3.99733 9.03131 5.66053 9.03131Z" fill="#current"/>
<path d="M13.8151 8.51531C13.8151 8.67091 13.8047 8.82591 13.7859 8.97911C13.9653 9.01251 14.1493 9.03131 14.3373 9.03131C16.0013 9.03131 17.3553 7.67831 17.3553 6.01531C17.3553 4.35111 16.0013 2.99731 14.3373 2.99731C13.0397 2.99731 11.9173 3.80771 11.4961 5.00471C12.8965 5.59751 13.8151 6.96191 13.8151 8.51531Z" fill="#current"/>
<path d="M9.11222 5.63091C7.83742 6.02351 6.98242 7.18251 6.98242 8.51531C6.98242 8.74371 7.00842 8.96991 7.05982 9.18751C7.07642 9.26811 7.09622 9.34171 7.12082 9.41731C7.51782 10.6833 8.67462 11.5311 10.0004 11.5311C11.3252 11.5311 12.481 10.6833 12.8768 9.42151C12.9028 9.34131 12.9226 9.26791 12.9364 9.19911C12.9906 8.96951 13.0164 8.74351 13.0164 8.51531C13.0164 7.18211 12.1622 6.02331 10.8906 5.63171C10.6064 5.54231 10.3076 5.49731 10.0004 5.49731C9.69282 5.49731 9.39422 5.54211 9.11222 5.63091Z" fill="current"/>
<path d="M4.62021 15.3226C5.21041 13.6762 6.52601 12.4086 8.13701 11.848C7.37461 11.4238 6.76821 10.743 6.44121 9.89381C6.18381 9.85261 5.92181 9.83121 5.65941 9.83121C3.31361 9.83121 1.28581 11.524 0.841614 13.8038C1.95481 14.627 3.25141 15.1486 4.62021 15.3226Z" fill="current"/>
<path d="M14.8222 16.3073C14.7932 16.1589 14.7604 16.0125 14.7192 15.8721C14.4566 14.9687 13.941 14.1629 13.228 13.5407C12.333 12.7609 11.1864 12.3313 9.99898 12.3313C7.82098 12.3313 5.87838 13.7915 5.27518 15.8823C5.23458 16.0241 5.20318 16.1653 5.17578 16.3055C6.57998 17.3443 8.24178 17.8933 9.99898 17.8933C11.7568 17.8933 13.4186 17.3449 14.8222 16.3073Z" fill="current"/>
</svg>
